# xmcd CD database file
#
# Track frame offsets:
#	150
#	19116
#	41901
#	63274
#	88740
#	112186
#	139897
#	161089
#	179920
#	200313
#	227024
#	250431
#	272952
#	295490
#
# Disc length: 4230 seconds
#
# Revision: 2
# Processed by: cddbd v1.5PL3 Copyright (c) Steve Scherf et al.
# Submitted via: CDex 1.51
#
DISCID=df10840e
DTITLE=Salsa - Los Amantes Vol. 1
DYEAR=1988
DGENRE=Salsa
TTITLE0=Fuga - Don Periñon
TTITLE1=Lucia- Dannie Rivera
TTITLE2=Ella Es - Orlando Collado
TTITLE3=Esto Es Amor- Chaney
TTITLE4=Caretas - Ismael Rivera
TTITLE5=No Te Vayas - Rubby Haddock
TTITLE6=Quien Es Usted - Manolo Lescano
TTITLE7=Cuerpo A Cuerpo - Cariaco
TTITLE8=Mucho O Nada - Angel Gabriel
TTITLE9=Como Tu - Ralphy Santy Y Tito Allen
TTITLE10=Noche Criolla - Willie Colon
TTITLE11=Cosas Del Amor - Millie Y Los Vecinos
TTITLE12=Aqui Esperandote - Anthony Ramirez
TTITLE13=Amor Conuco - Chaney
EXTD=YEAR: 1988
EXTT0=
EXTT1=
EXTT2=
EXTT3=
EXTT4=
EXTT5=
EXTT6=
EXTT7=
EXTT8=
EXTT9=
EXTT10=
EXTT11=
EXTT12=
EXTT13=
PLAYORDER=
